<svg xmlns="http://www.w3.org/2000/svg" width="315.391" height="51.244" viewBox="0 0 315.391 51.244">
  <path id="Union_2" data-name="Union 2" d="M10,61.48a25.972,25.972,0,0,1-8.591-4.036l3.8-8.418a25.759,25.759,0,0,0,7.383,3.657,27.739,27.739,0,0,0,8.556,1.38q4.76,0,7.038-1.414a4.276,4.276,0,0,0,2.277-3.761,3.594,3.594,0,0,0-1.346-2.863A10.193,10.193,0,0,0,25.659,44.2q-2.1-.69-5.692-1.518a78.7,78.7,0,0,1-9.039-2.622,14.677,14.677,0,0,1-6.037-4.209,11.363,11.363,0,0,1-2.519-7.727,13.448,13.448,0,0,1,2.277-7.625,15.318,15.318,0,0,1,6.866-5.416,28,28,0,0,1,11.212-2,37.117,37.117,0,0,1,9.039,1.1,26.692,26.692,0,0,1,7.728,3.174l-3.45,8.487a26.926,26.926,0,0,0-13.387-3.8q-4.691,0-6.935,1.518a4.632,4.632,0,0,0-2.242,4,3.913,3.913,0,0,0,2.587,3.692,40.634,40.634,0,0,0,7.9,2.381,78.648,78.648,0,0,1,9.039,2.622,14.975,14.975,0,0,1,6.038,4.14,11.1,11.1,0,0,1,2.518,7.659,13.189,13.189,0,0,1-2.311,7.556,15.542,15.542,0,0,1-6.935,5.417,28.276,28.276,0,0,1-11.247,2A39.519,39.519,0,0,1,10,61.48ZM67.02,58.858a23.588,23.588,0,0,1-9.248-8.772A24.168,24.168,0,0,1,54.406,37.4a24.172,24.172,0,0,1,3.366-12.682,23.592,23.592,0,0,1,9.248-8.771,27.474,27.474,0,0,1,13.226-3.163,27.739,27.739,0,0,1,11.186,2.176,22.406,22.406,0,0,1,8.4,6.256l-7.072,6.528A15.206,15.206,0,0,0,80.79,22.172,15.9,15.9,0,0,0,72.9,24.11,13.782,13.782,0,0,0,67.5,29.516,15.9,15.9,0,0,0,65.558,37.4,15.9,15.9,0,0,0,67.5,45.292,13.774,13.774,0,0,0,72.9,50.7a15.888,15.888,0,0,0,7.888,1.939,15.134,15.134,0,0,0,11.967-5.644L99.83,53.52A22.035,22.035,0,0,1,91.4,59.845,27.981,27.981,0,0,1,80.178,62.02,27.342,27.342,0,0,1,67.02,58.858Zm103.052,2.91V13.232h88.051V61.768ZM306.634,61.2,282.9,32.3V61.2h-10.88V13.6h9.113L304.8,42.5V13.6h10.88V61.2Zm-159.748,0-9.18-13.261H127.573V61.2H116.557V13.6h20.6a26.446,26.446,0,0,1,10.982,2.108,16.313,16.313,0,0,1,7.174,5.984,16.483,16.483,0,0,1,2.516,9.18,16.154,16.154,0,0,1-2.55,9.146,16.161,16.161,0,0,1-7.242,5.882l10.676,15.3ZM127.573,39.173h8.976q4.964,0,7.548-2.176a7.562,7.562,0,0,0,2.584-6.12,7.54,7.54,0,0,0-2.584-6.154q-2.584-2.141-7.548-2.142h-8.976Z" transform="translate(-0.787 -12.288)" fill="#7bc196" stroke="rgba(0,0,0,0)" stroke-miterlimit="10" stroke-width="1"/>
</svg>
